<?xml version="1.0" standalone="no"?>
<!DOCTYPE svg PUBLIC "-//W3C//DTD SVG 20010904//EN"
 "http://www.w3.org/TR/2001/REC-SVG-20010904/DTD/svg10.dtd">
<svg version="1.0" xmlns="http://www.w3.org/2000/svg"
 width="225.000000pt" height="225.000000pt" viewBox="0 0 225.000000 225.000000"
 preserveAspectRatio="xMidYMid meet">

<g transform="translate(0.000000,225.000000) scale(0.100000,-0.100000)"
fill="#000000" stroke="none">
<path d="M509 1537 c-68 -45 -69 -54 -69 -422 0 -368 1 -377 69 -422 l34 -23
597 0 597 0 34 23 c68 45 69 54 69 422 0 368 -1 377 -69 422 l-34 23 -597 0
-597 0 -34 -23z m826 -52 l23 -60 -325 0 -325 0 -14 -35 c-19 -51 -194 -567
-194 -574 0 -3 144 -6 319 -6 l319 0 52 158 c29 86 56 160 59 165 4 4 32 -66
63 -155 l55 -163 94 -3 95 -3 102 303 c56 167 102 306 102 311 0 4 -40 7 -89
7 l-89 0 -52 -157 c-29 -87 -56 -162 -60 -166 -4 -5 -26 47 -49 114 -22 67
-39 124 -37 126 2 2 18 -37 36 -87 18 -50 36 -93 40 -95 7 -4 30 53 133 328
l22 59 62 -4 c72 -5 108 -26 135 -79 16 -30 18 -69 18 -354 0 -357 -2 -367
-69 -412 -32 -22 -44 -23 -202 -23 l-168 0 -67 205 c-36 113 -69 203 -73 200
-4 -2 -36 -94 -71 -204 l-64 -201 -281 0 c-411 0 -387 -28 -383 447 4 462 -40
424 487 421 l374 -3 22 -60z m-218 -197 c-2 -7 -10 -30 -18 -50 l-13 -38 -129
0 -129 0 6 25 c3 13 11 36 16 50 l10 25 131 0 c101 0 130 -3 126 -12z m-83
-240 c-4 -13 -12 -39 -19 -58 l-12 -35 -131 -3 c-73 -1 -132 -1 -132 1 0 4 19
61 35 105 3 9 40 12 135 12 l131 0 -7 -22z"/>
</g>
</svg>
